HIERARCHY
ROOT Hips
{
 OFFSET 0.000000 0.000000 0.000000
 CHANNELS 6 Xposition Yposition Zposition Yrotation Xrotation Zrotation
 JOINT Chest
 {
  OFFSET 0.000000 9.581000 -0.001100
  CHANNELS 3 Yrotation Xrotation Zrotation
  JOINT Chest2
  {
   OFFSET 0.000000 9.561100 0.002200
   CHANNELS 3 Yrotation Xrotation Zrotation
   JOINT Chest3
   {
    OFFSET 0.000000 9.521100 0.000000
    CHANNELS 3 Yrotation Xrotation Zrotation
    JOINT Chest4
    {
     OFFSET 0.000000 9.511400 0.000000
     CHANNELS 3 Yrotation Xrotation Zrotation
     JOINT Neck
     {
      OFFSET 0.000000 14.375100 0.000000
      CHANNELS 3 Yrotation Xrotation Zrotation
      JOINT Head
      {
       OFFSET 0.000000 8.901200 0.004600
       CHANNELS 3 Yrotation Xrotation Zrotation
       End Site
       {
        OFFSET 0.000000 16.962200 0.002400
       }
      }
     }
     JOINT RightCollar
     {
      OFFSET -2.920100 9.518800 0.000000
      CHANNELS 3 Yrotation Xrotation Zrotation
      JOINT RightShoulder
      {
       OFFSET -13.664500 0.000000 0.000000
       CHANNELS 3 Yrotation Xrotation Zrotation
       JOINT RightElbow
       {
        OFFSET 0.000000 -29.999200 0.000000
        CHANNELS 3 Yrotation Xrotation Zrotation
        JOINT RightWrist
        {
         OFFSET 0.000000 -24.253600 0.000000
         CHANNELS 3 Yrotation Xrotation Zrotation
         End Site
         {
          OFFSET 0.000000 -17.918900 0.000000
         }
        }
       }
      }
     }
     JOINT LeftCollar
     {
      OFFSET 2.920100 9.518800 0.000000
      CHANNELS 3 Yrotation Xrotation Zrotation
      JOINT LeftShoulder
      {
       OFFSET 13.664500 0.000000 0.000000
       CHANNELS 3 Yrotation Xrotation Zrotation
       JOINT LeftElbow
       {
        OFFSET 0.000000 -29.999200 0.000000
        CHANNELS 3 Yrotation Xrotation Zrotation
        JOINT LeftWrist
        {
         OFFSET 0.000000 -24.253600 0.000000
         CHANNELS 3 Yrotation Xrotation Zrotation
         End Site
         {
          OFFSET 0.000000 -17.918900 0.000000
         }
        }
       }
      }
     }
    }
   }
  }
 }
 JOINT RightHip
 {
  OFFSET -7.797300 0.005300 0.000500
  CHANNELS 3 Yrotation Xrotation Zrotation
  JOINT RightKnee
  {
   OFFSET 0.000000 -40.663400 -0.000500
   CHANNELS 3 Yrotation Xrotation Zrotation
   JOINT RightAnkle
   {
    OFFSET 0.000000 -39.523700 -0.000900
    CHANNELS 3 Yrotation Xrotation Zrotation
    JOINT RightToe
    {
     OFFSET 0.000000 -6.418000 14.485300
     CHANNELS 3 Yrotation Xrotation Zrotation
     End Site
     {
      OFFSET 0.000000 -1.465200 6.326400
     }
    }
   }
  }
 }
 JOINT LeftHip
 {
  OFFSET 7.797300 0.005300 0.000500
  CHANNELS 3 Yrotation Xrotation Zrotation
  JOINT LeftKnee
  {
   OFFSET 0.000000 -40.663400 -0.000500
   CHANNELS 3 Yrotation Xrotation Zrotation
   JOINT LeftAnkle
   {
    OFFSET 0.000000 -39.523700 -0.000900
    CHANNELS 3 Yrotation Xrotation Zrotation
    JOINT LeftToe
    {
     OFFSET 0.000000 -6.418000 14.485300
     CHANNELS 3 Yrotation Xrotation Zrotation
     End Site
     {
      OFFSET 0.000000 -1.465200 6.326400
     }
    }
   }
  }
 }
}
MOTION
Frames: 15
Frame Time: 0.008333
-13.887470 126.915655 26.160967 -167.540092 -49.363387 -2.216591 -3.501063 27.078440 0.655826 -0.616465 4.704898 0.232113 -0.966626 7.451664 0.340694 -2.823729 22.064064 0.675819 12.588402 21.409064 -2.641489 14.917247 -1.821568 -5.924443 1.270925 4.324575 0.777597 6.307844 -6.305361 -10.695945 -78.669381 -61.299219 132.004101 9.484350 18.265579 2.296453 -6.902981 0.791425 0.149062 -6.522175 -2.102615 9.618369 56.066416 -54.844943 -106.771873 -2.276263 5.547170 15.215408 -5.914460 -23.400495 -6.940196 -4.421288 77.961902 -4.143485 6.950781 -11.223477 2.619433 0.000095 0.000932 0.000042 6.254665 5.919303 1.080400 128.045520 65.167155 147.567723 6.195528 12.480902 -0.044241 0.003399 -0.007220 0.001506
-13.888345 126.917616 26.156135 -167.529082 -49.352013 -2.224417 -3.505781 27.074742 0.653981 -0.612568 4.707755 0.225346 -0.970442 7.441881 0.346533 -2.831163 22.056830 0.667689 12.586823 21.428871 -2.638941 14.917928 -1.807067 -5.917361 1.281097 4.314158 0.777835 6.355897 -6.308175 -10.722961 -78.677728 -61.272075 131.966842 9.524527 18.256926 2.306948 -6.896993 0.781588 0.154994 -6.529132 -2.091685 9.620429 56.079111 -54.834924 -106.801596 -2.294874 5.536293 15.219863 -5.920514 -23.413448 -6.939221 -4.372165 77.993242 -4.081925 6.947123 -11.285555 2.614434 -0.000270 0.002495 -0.000120 6.243609 5.927405 1.104339 128.053370 65.171378 147.575055 6.160601 12.442273 -0.049737 0.006729 -0.010810 0.002981
-13.889029 126.916812 26.153610 -167.516758 -49.317481 -2.232593 -3.512082 27.047350 0.651999 -0.606248 4.706404 0.219711 -0.976415 7.435805 0.351157 -2.837436 22.044796 0.655333 12.595960 21.437376 -2.629098 14.914875 -1.787671 -5.905133 1.300548 4.260194 0.767830 6.375932 -6.257991 -10.713840 -78.701626 -61.300101 131.980296 9.524153 18.228061 2.295043 -6.888796 0.778862 0.165253 -6.559413 -2.106538 9.627541 56.084102 -54.817328 -106.797453 -2.346786 5.518611 15.200479 -5.923888 -23.426093 -6.937275 -4.323673 78.003411 -4.019079 6.939422 -11.437531 2.645694 0.000031 -0.002517 0.000014 6.227761 5.917178 1.122934 128.081265 65.162571 147.598889 6.148763 12.397480 -0.139782 0.004961 0.004054 0.002198
-13.890176 126.913703 26.153221 -167.483566 -49.262958 -2.252336 -3.525566 27.003645 0.647412 -0.605835 4.700303 0.216680 -0.967402 7.422583 0.336925 -2.841849 22.029002 0.649051 12.613313 21.442536 -2.593036 14.921933 -1.784379 -5.882109 1.302046 4.276252 0.801422 6.386251 -6.252839 -10.716806 -78.738489 -61.344691 132.023757 9.493864 18.206812 2.279789 -6.871043 0.752350 0.192930 -6.592378 -2.119065 9.623958 56.041307 -54.794576 -106.739681 -2.335789 5.534170 15.206843 -5.924730 -23.463339 -6.936555 -4.360428 78.014650 -4.033523 6.934747 -11.556344 2.668267 -0.000096 -0.001430 -0.000043 6.199117 5.877605 1.122383 128.107667 65.159805 147.625868 6.158262 12.387963 -0.208810 0.002258 0.010917 0.001001
-13.891309 126.914513 26.149443 -167.466864 -49.239100 -2.265038 -3.524514 26.991677 0.643710 -0.606656 4.691187 0.217775 -0.970422 7.417072 0.341346 -2.843143 22.028791 0.651054 12.624178 21.423923 -2.591926 14.927334 -1.781936 -5.866859 1.300479 4.246245 0.788623 6.419038 -6.235281 -10.720403 -78.778876 -61.369034 132.047566 9.463572 18.189809 2.265655 -6.862573 0.738554 0.194010 -6.602434 -2.110879 9.624993 56.128911 -54.834267 -106.826744 -2.322697 5.559987 15.195498 -5.926357 -23.477431 -6.932737 -4.367006 78.034550 -4.028444 6.940262 -11.652453 2.681450 -0.000654 -0.001278 -0.000290 6.182799 5.870990 1.128775 128.130883 65.157701 147.651294 6.142243 12.347167 -0.214231 0.005139 0.002533 0.002277
-13.893410 126.916168 26.145152 -167.451986 -49.221942 -2.272165 -3.518239 26.992914 0.631718 -0.615459 4.674100 0.227755 -0.970849 7.411280 0.343574 -2.840459 22.011421 0.643478 12.638635 21.417011 -2.573401 14.922565 -1.765361 -5.853111 1.299689 4.211218 0.767598 6.422874 -6.196905 -10.699325 -78.819427 -61.415271 132.087610 9.433238 18.157564 2.261950 -6.864458 0.756565 0.205038 -6.597318 -2.139842 9.619990 56.153387 -54.856175 -106.850924 -2.366032 5.554612 15.144672 -5.921398 -23.486831 -6.931728 -4.302594 78.070925 -3.957985 6.921940 -11.762827 2.696281 -0.000860 -0.000657 -0.000381 6.160928 5.886798 1.129643 128.139915 65.165647 147.655424 6.115838 12.271490 -0.188146 0.008891 -0.010235 0.003939
-13.894199 126.916462 26.141926 -167.439617 -49.194116 -2.284314 -3.518806 26.976861 0.631362 -0.618511 4.663330 0.233752 -0.965752 7.401301 0.334860 -2.841044 21.997955 0.641503 12.656532 21.408389 -2.555274 14.940759 -1.768058 -5.835420 1.301570 4.214462 0.765714 6.421790 -6.196412 -10.697117 -78.811895 -61.416616 132.077349 9.447900 18.131064 2.248107 -6.855058 0.762727 0.205855 -6.596498 -2.154636 9.619227 56.152542 -54.873291 -106.850173 -2.365984 5.555743 15.120061 -5.916924 -23.505911 -6.919925 -4.297344 78.101872 -3.943073 6.909011 -11.871835 2.705750 -0.001454 0.000227 -0.000644 6.143294 5.892436 1.132335 128.139953 65.175918 147.657305 6.106875 12.229040 -0.194447 0.013132 -0.010865 0.005817
-13.896067 126.916466 26.139288 -167.431107 -49.165061 -2.287084 -3.520352 26.958167 0.622060 -0.618586 4.657639 0.235680 -0.966181 7.389220 0.333197 -2.846275 21.955275 0.615670 12.692609 21.418658 -2.513202 14.962818 -1.772887 -5.815386 1.311979 4.251121 0.783786 6.398770 -6.203403 -10.704814 -78.835546 -61.420581 132.109819 9.496119 18.117082 2.287456 -6.848589 0.800770 0.224249 -6.585246 -2.165902 9.609319 56.148784 -54.890493 -106.843034 -2.378899 5.555924 15.095924 -5.906435 -23.526176 -6.915245 -4.291700 78.131915 -3.924671 6.890406 -11.987767 2.706974 -0.001663 0.001357 -0.000737 6.121488 5.894200 1.121798 128.123472 65.185940 147.630641 6.109666 12.212818 -0.207336 0.011193 -0.008620 0.004959
-13.897120 126.913188 26.139609 -167.430017 -49.111424 -2.285865 -3.516214 26.912808 0.615117 -0.619059 4.650807 0.234955 -0.965158 7.376332 0.331011 -2.843005 21.953838 0.620906 12.711470 21.394684 -2.506899 14.984584 -1.781354 -5.793318 1.313450 4.255007 0.775503 6.387604 -6.200081 -10.691789 -78.884498 -61.445528 132.159347 9.493740 18.113019 2.296591 -6.846792 0.797601 0.221865 -6.573607 -2.172576 9.593078 56.136930 -54.904807 -106.829892 -2.384435 5.570889 15.082871 -5.897346 -23.573673 -6.904984 -4.269677 78.162117 -3.890123 6.865202 -12.112412 2.702983 -0.002767 0.002594 -0.001226 6.102772 5.871730 1.103500 128.098018 65.192133 147.594289 6.120502 12.188112 -0.238889 0.004398 -0.004833 0.001948
-13.897971 126.912781 26.137623 -167.424893 -49.082328 -2.292791 -3.513729 26.889862 0.612753 -0.613794 4.644935 0.231498 -0.962656 7.364171 0.329537 -2.842143 21.953255 0.628132 12.724317 21.377494 -2.497587 15.033350 -1.839857 -5.789567 1.310415 4.262138 0.767046 6.365494 -6.204738 -10.681279 -78.896699 -61.471178 132.180516 9.472424 18.096775 2.303392 -6.855549 0.776192 0.202862 -6.550317 -2.169887 9.571012 56.075162 -54.924246 -106.768938 -2.396411 5.580294 15.068451 -5.887108 -23.590703 -6.891667 -4.243267 78.186911 -3.851440 6.847816 -12.245126 2.703403 -0.002677 0.002195 -0.001186 6.080334 5.875999 1.083299 128.086178 65.191561 147.578145 6.104067 12.109805 -0.181298 0.010585 -0.015647 0.004689
-13.897839 126.912632 26.135523 -167.421115 -49.057586 -2.305771 -3.508284 26.868596 0.618759 -0.612817 4.640618 0.228773 -0.959053 7.341319 0.320794 -2.840542 21.930387 0.621984 12.748674 21.376791 -2.466261 15.058850 -1.872840 -5.779546 1.310278 4.306960 0.775285 6.334358 -6.206502 -10.674229 -78.915142 -61.485575 132.210915 9.456660 18.083403 2.317552 -6.853163 0.813394 0.208378 -6.544208 -2.177780 9.546464 56.019266 -54.942688 -106.710023 -2.412585 5.570291 15.040918 -5.875607 -23.600950 -6.870765 -4.224789 78.207897 -3.821962 6.843740 -12.382812 2.708330 -0.001633 0.001739 -0.000723 6.064901 5.880219 1.065118 128.123935 65.189370 147.619422 6.121390 12.054771 -0.174734 0.019763 -0.010650 0.008755
-13.899459 126.913078 26.133475 -167.420863 -49.040805 -2.307201 -3.506530 26.852506 0.617822 -0.610863 4.635490 0.224915 -0.960225 7.342370 0.326581 -2.840529 21.927427 0.620985 12.758957 21.327228 -2.473541 15.069254 -1.885345 -5.762997 1.307890 4.312447 0.763559 6.324364 -6.207118 -10.664638 -78.943356 -61.493721 132.230647 9.464184 18.093817 2.339305 -6.847788 0.809810 0.194502 -6.547232 -2.174336 9.545705 56.025241 -54.938688 -106.703289 -2.433630 5.574154 15.020225 -5.864224 -23.606434 -6.860969 -4.191560 78.230196 -3.784364 6.844231 -12.524913 2.713474 -0.000790 0.000797 -0.000350 6.051385 5.883736 1.035748 128.125309 65.183481 147.609686 6.138778 12.019203 -0.125194 0.020763 -0.013443 0.009197
-13.901535 126.914440 26.130974 -167.421718 -49.034154 -2.307198 -3.504409 26.846015 0.614774 -0.608604 4.628271 0.219019 -0.958184 7.331507 0.324830 -2.837154 21.914802 0.617128 12.767232 21.308112 -2.459328 15.076638 -1.909191 -5.754029 1.302029 4.340277 0.766905 6.323545 -6.205287 -10.651372 -78.928139 -61.506383 132.171652 9.476018 18.115576 2.385300 -6.841910 0.835978 0.191193 -6.551270 -2.173816 9.545249 56.049253 -54.890331 -106.703797 -2.472360 5.605929 14.985922 -5.852645 -23.602131 -6.852657 -4.172911 78.251445 -3.762138 6.845105 -12.668606 2.717931 0.000060 -0.000419 0.000026 6.040791 5.894254 1.003052 128.110727 65.173536 147.585399 6.159065 11.997272 -0.082250 0.021139 -0.015707 0.009364
-13.903719 126.913711 26.130551 -167.422069 -49.013928 -2.305471 -3.501780 26.827242 0.603846 -0.608715 4.614740 0.206309 -0.953152 7.327151 0.337006 -2.837082 21.882318 0.607777 12.776371 21.307553 -2.437228 15.083000 -1.902571 -5.739145 1.301515 4.386777 0.774962 6.304004 -6.206178 -10.637228 -78.902434 -61.504472 132.155588 9.466027 18.134267 2.392752 -6.833030 0.884595 0.190751 -6.533338 -2.187866 9.493984 55.970608 -54.901245 -106.627054 -2.478057 5.627007 14.971768 -5.842450 -23.614376 -6.846079 -4.185214 78.270820 -3.769249 6.848074 -12.811945 2.720535 0.000487 -0.001031 0.000216 6.028152 5.889455 0.940972 128.034585 65.139908 147.494239 6.199275 11.995547 -0.057874 0.003090 -0.010983 0.001369
-13.903712 126.913411 26.129640 -167.430038 -48.998839 -2.312359 -3.491847 26.813024 0.607393 -0.607192 4.608513 0.204015 -0.952335 7.318581 0.338070 -2.832673 21.875315 0.604300 12.776775 21.284823 -2.431389 15.081269 -1.946356 -5.736747 1.305072 4.409054 0.784984 6.281428 -6.205793 -10.639552 -78.883793 -61.493758 132.148614 9.460226 18.149245 2.400787 -6.823877 0.909239 0.186267 -6.522051 -2.196363 9.481491 55.933789 -54.883563 -106.599130 -2.482950 5.647191 14.965162 -5.839651 -23.620012 -6.825497 -4.211885 78.282715 -3.791145 6.858603 -12.951391 2.718129 -0.000502 -0.003092 -0.000222 6.030821 5.871883 0.926941 128.054070 65.136466 147.515363 6.263544 12.043872 -0.138052 0.003775 -0.002897 0.001673
